<svg width="93" height="81" fill="none" xmlns="http://www.w3.org/2000/svg">
	<path
		d="M58.7 34.6h-3.3a3.1 3.1 0 0 1-3 2.8v3.2c3.3 0 6-2.6 6.3-6ZM58.7 33.8c-.2-3.4-3-6-6.4-6V31c1.6 0 3 1.2 3.1 2.8h3.3Z"
		fill="#242424"/>
	<path
		d="M58.7 43.4c-.2-3.3-3-6-6.4-6v3.3c1.6 0 3 1.2 3.1 2.7h3.3ZM58.7 44.3h-3.3a3.1 3.1 0 0 1-3 2.7v3.3c3.3 0 6-2.7 6.3-6ZM35.3 0c-3.3.2-6 3-6 6.4h3.3c0-1.6 1.2-3 2.7-3.1V0ZM51.5 27.8c-3.4.2-6 3-6 6.4h3.2c0-1.6 1.2-2.9 2.8-3.1v-3.3ZM36.2 0v3.3c1.5.2 2.7 1.5 2.7 3.1H42c0-3.4-2.6-6.2-6-6.4ZM52.2 8.9v3.3c1.6.2 2.7 1.5 2.7 3h3.3c0-3.3-2.6-6.1-6-6.3ZM36.2 22.7c3.3-.2 5.9-3 5.9-6.4h-3.2c0 1.6-1.2 2.9-2.7 3.1v3.3ZM35.3 22.7v-3.3a3.1 3.1 0 0 1-2.7-3.1h-3.2c0 3.4 2.6 6.1 6 6.4ZM22.4.5h-3.2V22h3.2V.5ZM32.6 9.6h-9.4V13h9.4V9.6ZM58.2.5H45.4v3.2h12.8V.5ZM42.1 9.6h-3.2V13H42V9.6Z"
		fill="#242424"/>
	<path
		d="M53 8.9h-3.2V12H53V9ZM35.3 27.7c-3.3.2-6 3-6 6.4h3.3c0-1.6 1.2-3 2.7-3.1v-3.3ZM36.2 27.7V31c1.5.2 2.7 1.5 2.7 3.1H42c0-3.4-2.6-6.2-6-6.4ZM36.2 50.5c3.3-.2 5.9-3 5.9-6.4h-3.2c0 1.6-1.2 3-2.7 3.1v3.3ZM35.3 50.5v-3.3a3.1 3.1 0 0 1-2.7-3.1h-3.2c0 3.4 2.6 6.2 5.9 6.4ZM42.1 35h-3.2v8.1H42v-8ZM48.8 33.3h-3.3v3.3h3.3v-3.3ZM48.8 41.5h-3.3v3.3h3.3v-3.3ZM54 37.3h-8.6v3.3h8.7v-3.3ZM32.6 35h-3.2v8.1h3.2v-8ZM48.7 4.7h-3.3V12h3.3V4.7Z"
		fill="#242424"/>
	<path
		d="M51.5 50.4V47a3.1 3.1 0 0 1-2.7-3.1h-3.3c0 3.4 2.6 6.1 6 6.4ZM73.3 34.6H70a3.1 3.1 0 0 1-3 2.8v3.2c3.3 0 6-2.6 6.3-6Z"
		fill="#242424"/>
	<path
		d="M73.3 43.4c-.2-3.3-3-6-6.4-6v3.3c1.6 0 3 1.2 3.1 2.7h3.3ZM65.2 28.2H62v8.4h3.2v-8.4ZM65.2 41.5H62V50h3.2v-8.4Z"
		fill="#242424"/>
	<path
		d="M68.4 37.3h-6.6v3.3h6.6v-3.3ZM81.6 33.3h-3.2v3.3h3.2v-3.3ZM91.1 33.3H88v3.3H91v-3.3ZM91.1 41.4H88v3.2H91v-3.2Z"
		fill="#242424"/>
	<path
		d="M84.3 27.7c-3.3.2-6 3-6 6.4h3.3c0-1.6 1.2-3 2.7-3.1v-3.3ZM85.2 27.7V31c1.5.2 2.7 1.5 2.7 3.1H91c0-3.4-2.6-6.2-5.9-6.4ZM76.1 27.6c-3.3.2-6 3-6 6.5h3.3c0-1.7 1.2-3 2.7-3.2v-3.3ZM76.1 50.5c-3.3-.2-6-3-6-6.4h3.3c0 1.6 1.2 3 2.7 3.1v3.3ZM91.1 43.8H88v6h3.2v-6ZM81.6 41.4h-3.2v3.2h3.2v-3.2Z"
		fill="#242424"/>
	<path
		d="M81.6 43.8h-3.2v6h3.2v-6ZM91.1 37.3H78.4v3.3H91v-3.3ZM6 5.6H2.8V9H6V5.6ZM15.5 5.6h-3.2V9h3.2V5.6ZM32.6 5.6h-3.2V9h3.2V5.6ZM42.1 5.6H39V9H42V5.6ZM32.6 13.7h-3.2V17h3.2v-3.3ZM42.1 13.7H39V17H42v-3.3ZM52.2 22.7c3.4-.2 6-3 6-6.4h-3.3c0 1.6-1.1 2.9-2.7 3.1v3.3ZM51.4 22.7v-3.3a3.1 3.1 0 0 1-2.7-3.1h-3.3c0 3.4 2.7 6.1 6 6.4Z"
		fill="#242424"/>
	<path
		d="M48.7 13h-3.3v4h3.3v-4ZM6 10H2.8v7H6v-7ZM8.7 0c-3.3.2-6 3-6 6.4H6c0-1.6 1.2-2.9 2.7-3.1V0ZM9.6 0v3.3c1.5.2 2.7 1.5 2.7 3.1h3.2c0-3.4-2.6-6.2-6-6.4Z"
		fill="#242424"/>
	<path
		d="M0 22.5c3.3-.2 6-3 6-6.4H2.7c0 1.6-1.2 3-2.7 3.2v3.2ZM15.5 10h-3.2V22h3.2V10ZM65.1 11.2 62 15.5V.5h3.2v10.7ZM74.8 22.2h-3.2V11.7l3.2-4.1v14.6ZM74.8 0 62 17.5v5.3L75 5.4V0ZM15.4 39.2l-3.2 4V39l3.2-4.4v4.6ZM25.7 49.9h-3.2v-11l3.2-3.9V50ZM25.7 27.7 12.2 45.2v5.3L25.7 33v-5.4ZM15.4 27.7 0 45.2v5.3L15.4 33v-5.4ZM70.1 55a9 9 0 0 0-8.3 9h4.6c0-2.2 1.6-4 3.8-4.4v-4.5ZM71.3 55v4.6c2.2.4 3.8 2.2 3.8 4.4h4.5a9 9 0 0 0-8.3-9Z"
		fill="#242424"/>
	<path
		d="M83.5 55a9 9 0 0 0-8.3 9h4.5c0-2.2 1.6-4 3.8-4.4v-4.5ZM84.7 55v4.6c2 .4 3.7 2.2 3.7 4.4H93a9 9 0 0 0-8.2-9ZM76.8 75.6c-2.2-1.1-9.9-5.3-10.2-10.4h-4.8c.4 7.6 12.2 13.8 15 15.2v-4.8ZM88.3 65.2c-.3 5-8 9.3-10.3 10.4v4.8c2.8-1.4 14.7-7.6 15-15.2h-4.7Z"
		fill="#242424"/>
</svg>
